<svg width="13" height="14" viewBox="0 0 13 14" fill="none" xmlns="http://www.w3.org/2000/svg">
<path d="M2.52168 9.48729C1.85751 9.48729 1.3173 9.26282 0.91222 8.81717C0.507136 8.37152 0.241291 7.71019 0.0864844 6.74801C-0.141467 5.33002 0.0847219 4.13485 0.723337 3.38285C1.09934 2.93995 1.59284 2.68389 2.15038 2.64267C2.62773 2.60695 3.34125 2.78802 4.03039 3.85158C4.46191 4.51758 4.79003 5.40228 4.93074 6.27874C5.10082 7.33681 4.97421 8.11573 4.54357 8.65946C4.20165 9.09137 3.67583 9.35898 2.98052 9.45624C2.8286 9.47711 2.67524 9.48749 2.52168 9.48729ZM3.67231 13.189C3.28426 13.189 2.89093 13.0728 2.53666 12.8494C2.02546 12.5254 1.67161 12.0258 1.55201 11.4592C1.46829 11.0564 1.51852 10.7363 1.70535 10.48C2.00879 10.0637 2.55341 9.97003 3.12975 9.87057C3.19056 9.86013 3.25224 9.84969 3.31481 9.83842C3.44759 9.81479 3.5833 9.78347 3.7149 9.75297C4.20782 9.63923 4.71777 9.52136 5.13871 9.80106C5.42042 9.98789 5.57934 10.3055 5.62693 10.7715C5.68098 11.3092 5.5576 11.8458 5.27942 12.2826C4.98009 12.7527 4.53124 13.0635 4.01629 13.158C3.90297 13.1787 3.78777 13.1891 3.67231 13.189ZM9.6992 6.84967C9.5458 6.84919 9.39263 6.83817 9.24095 6.8167C8.54594 6.72054 8.02012 6.45266 7.67819 6.01992C7.24755 5.47619 7.12007 4.69754 7.29103 3.6392C7.43174 2.76191 7.75898 1.87804 8.18844 1.21451C8.87406 0.154795 9.58846 -0.0290138 10.0684 0.00340687C10.6242 0.0413226 11.1168 0.293819 11.4934 0.734247C12.1365 1.48624 12.3644 2.68498 12.1356 4.1093C11.9808 5.07093 11.7185 5.72896 11.3098 6.17845C10.9012 6.62795 10.3634 6.84967 9.6992 6.84967ZM8.54858 10.5514C8.43341 10.5514 8.31851 10.541 8.20548 10.5204C7.68965 10.4258 7.2408 10.1151 6.94235 9.645C6.66417 9.20814 6.54079 8.67155 6.59484 8.13386C6.64184 7.66678 6.80047 7.35027 7.08305 7.16316C7.504 6.88374 8.01395 7.00133 8.50687 7.11536C8.63847 7.14558 8.77418 7.1769 8.90696 7.2008L9.09173 7.23295C9.66836 7.33214 10.213 7.42528 10.5164 7.84208C10.7032 8.09842 10.7535 8.41905 10.6698 8.82129C10.5503 9.38804 10.1964 9.88777 9.6851 10.2118C9.32878 10.4355 8.93545 10.5514 8.54858 10.5514Z" fill="#3D523E"/>
</svg>
